<svg width="100" height="100" viewBox="0 0 100 100" fill="none" xmlns="http://www.w3.org/2000/svg">
  <rect x="10" y="10" width="80" height="80" rx="8" fill="#E6F7FF" />
  
  <!-- 火箭主体 -->
  <path d="M50 75L40 65V55L50 45L60 55V65L50 75Z" fill="#1677FF" />
  
  <!-- 火箭窗户 -->
  <circle cx="50" cy="55" r="5" fill="white" />
  
  <!-- 火箭尾翼 -->
  <path d="M40 65L35 70V60L40 65Z" fill="#1677FF" opacity="0.8" />
  <path d="M60 65L65 70V60L60 65Z" fill="#1677FF" opacity="0.8" />
  
  <!-- 火箭底部 -->
  <path d="M45 75H55L50 85L45 75Z" fill="#1677FF" opacity="0.9" />
  
  <!-- 火焰 -->
  <path d="M45 85C45 85 46 89 50 89C54 89 55 85 55 85C55 85 53 87 50 87C47 87 45 85 45 85Z" fill="#1677FF" opacity="0.7" />
  <path d="M48 89C48 89 48.5 92 50 92C51.5 92 52 89 52 89C52 89 51 90 50 90C49 90 48 89 48 89Z" fill="#1677FF" opacity="0.5" />
  
  <!-- 星星 -->
  <path d="M20 25L18 20L16 25L11 27L16 29L18 34L20 29L25 27L20 25Z" fill="#1677FF" opacity="0.6" />
  <path d="M75 40L73 35L71 40L66 42L71 44L73 49L75 44L80 42L75 40Z" fill="#1677FF" opacity="0.8" />
  <path d="M30 70L29 67L28 70L25 71L28 72L29 75L30 72L33 71L30 70Z" fill="#1677FF" opacity="0.4" />
  
  <!-- 数据连接线 -->
  <path d="M35 35C35 35 45 30 50 25C55 20 65 20 65 20" stroke="#1677FF" stroke-width="1.5" stroke-dasharray="3 2" />
  <path d="M30 50C30 50 25 40 25 35C25 30 30 25 30 25" stroke="#1677FF" stroke-width="1.5" stroke-dasharray="3 2" />
  <path d="M70 50C70 50 75 40 75 35C75 30 70 25 70 25" stroke="#1677FF" stroke-width="1.5" stroke-dasharray="3 2" />
  
  <!-- 小圆点 -->
  <circle cx="35" cy="35" r="2" fill="#1677FF" />
  <circle cx="65" cy="20" r="2" fill="#1677FF" />
  <circle cx="30" cy="25" r="2" fill="#1677FF" />
  <circle cx="70" cy="25" r="2" fill="#1677FF" />
  <circle cx="30" cy="50" r="2" fill="#1677FF" />
  <circle cx="70" cy="50" r="2" fill="#1677FF" />
</svg> 