<svg width="800" height="600" viewBox="0 0 800 600" fill="none" xmlns="http://www.w3.org/2000/svg">
  <g opacity="0.6">
    <path d="M200 150C311.046 150 400 238.954 400 350C400 461.046 311.046 550 200 550C88.9543 550 0 461.046 0 350C0 238.954 88.9543 150 200 150Z" fill="url(#paint0_linear)" />
    <path d="M600 50C711.046 50 800 138.954 800 250C800 361.046 711.046 450 600 450C488.954 450 400 361.046 400 250C400 138.954 488.954 50 600 50Z" fill="url(#paint1_linear)" />
    <path d="M700 450C755.228 450 800 494.772 800 550C800 605.228 755.228 650 700 650C644.772 650 600 605.228 600 550C600 494.772 644.772 450 700 450Z" fill="url(#paint2_linear)" />
    <path d="M650 200L690 240L730 200L690 160L650 200Z" fill="url(#paint3_linear)" />
    <path d="M500 400L520 420L540 400L520 380L500 400Z" fill="url(#paint4_linear)" />
    <path d="M300 100L330 130L360 100L330 70L300 100Z" fill="url(#paint5_linear)" />
    <path d="M150 300L170 320L190 300L170 280L150 300Z" fill="url(#paint6_linear)" />
    <line x1="200" y1="150" x2="300" y2="100" stroke="url(#paint7_linear)" stroke-width="2" />
    <line x1="200" y1="150" x2="150" y2="300" stroke="url(#paint8_linear)" stroke-width="2" />
    <line x1="600" y1="50" x2="690" y2="160" stroke="url(#paint9_linear)" stroke-width="2" />
    <line x1="600" y1="450" x2="700" y2="550" stroke="url(#paint10_linear)" stroke-width="2" />
    <line x1="600" y1="450" x2="520" y2="420" stroke="url(#paint11_linear)" stroke-width="2" />
    <line x1="600" y1="50" x2="500" y2="400" stroke="url(#paint12_linear)" stroke-width="2" stroke-dasharray="6 6" />
    <line x1="200" y1="550" x2="700" y2="550" stroke="url(#paint13_linear)" stroke-width="2" stroke-dasharray="6 6" />
  </g>
  <defs>
    <linearGradient id="paint0_linear" x1="0" y1="150" x2="400" y2="550" gradientUnits="userSpaceOnUse">
      <stop stop-color="#1677FF" stop-opacity="0.2" />
      <stop offset="1" stop-color="#1677FF" stop-opacity="0.05" />
    </linearGradient>
    <linearGradient id="paint1_linear" x1="400" y1="50" x2="800" y2="450" gradientUnits="userSpaceOnUse">
      <stop stop-color="#06B6D4" stop-opacity="0.2" />
      <stop offset="1" stop-color="#06B6D4" stop-opacity="0.05" />
    </linearGradient>
    <linearGradient id="paint2_linear" x1="600" y1="450" x2="800" y2="650" gradientUnits="userSpaceOnUse">
      <stop stop-color="#1677FF" stop-opacity="0.2" />
      <stop offset="1" stop-color="#1677FF" stop-opacity="0.1" />
    </linearGradient>
    <linearGradient id="paint3_linear" x1="650" y1="160" x2="730" y2="240" gradientUnits="userSpaceOnUse">
      <stop stop-color="#1677FF" />
      <stop offset="1" stop-color="#06B6D4" />
    </linearGradient>
    <linearGradient id="paint4_linear" x1="500" y1="380" x2="540" y2="420" gradientUnits="userSpaceOnUse">
      <stop stop-color="#1677FF" />
      <stop offset="1" stop-color="#06B6D4" />
    </linearGradient>
    <linearGradient id="paint5_linear" x1="300" y1="70" x2="360" y2="130" gradientUnits="userSpaceOnUse">
      <stop stop-color="#1677FF" />
      <stop offset="1" stop-color="#06B6D4" />
    </linearGradient>
    <linearGradient id="paint6_linear" x1="150" y1="280" x2="190" y2="320" gradientUnits="userSpaceOnUse">
      <stop stop-color="#1677FF" />
      <stop offset="1" stop-color="#06B6D4" />
    </linearGradient>
    <linearGradient id="paint7_linear" x1="200" y1="150" x2="300" y2="100" gradientUnits="userSpaceOnUse">
      <stop stop-color="#1677FF" stop-opacity="0.3" />
      <stop offset="1" stop-color="#06B6D4" stop-opacity="0.3" />
    </linearGradient>
    <linearGradient id="paint8_linear" x1="200" y1="150" x2="150" y2="300" gradientUnits="userSpaceOnUse">
      <stop stop-color="#1677FF" stop-opacity="0.3" />
      <stop offset="1" stop-color="#06B6D4" stop-opacity="0.3" />
    </linearGradient>
    <linearGradient id="paint9_linear" x1="600" y1="50" x2="690" y2="160" gradientUnits="userSpaceOnUse">
      <stop stop-color="#1677FF" stop-opacity="0.3" />
      <stop offset="1" stop-color="#06B6D4" stop-opacity="0.3" />
    </linearGradient>
    <linearGradient id="paint10_linear" x1="600" y1="450" x2="700" y2="550" gradientUnits="userSpaceOnUse">
      <stop stop-color="#1677FF" stop-opacity="0.3" />
      <stop offset="1" stop-color="#06B6D4" stop-opacity="0.3" />
    </linearGradient>
    <linearGradient id="paint11_linear" x1="600" y1="450" x2="520" y2="420" gradientUnits="userSpaceOnUse">
      <stop stop-color="#1677FF" stop-opacity="0.3" />
      <stop offset="1" stop-color="#06B6D4" stop-opacity="0.3" />
    </linearGradient>
    <linearGradient id="paint12_linear" x1="600" y1="50" x2="500" y2="400" gradientUnits="userSpaceOnUse">
      <stop stop-color="#1677FF" stop-opacity="0.3" />
      <stop offset="1" stop-color="#06B6D4" stop-opacity="0.3" />
    </linearGradient>
    <linearGradient id="paint13_linear" x1="200" y1="550" x2="700" y2="550" gradientUnits="userSpaceOnUse">
      <stop stop-color="#1677FF" stop-opacity="0.3" />
      <stop offset="1" stop-color="#06B6D4" stop-opacity="0.3" />
    </linearGradient>
  </defs>
</svg> 